<svg width="193" height="77" viewBox="0 0 193 77" fill="none" xmlns="http://www.w3.org/2000/svg">
<path d="M86.1959 25.3239C86.2097 26.7868 85.6249 26.9326 84.0637 26.9876C82.6214 27.0394 81.1844 27.6387 79.8545 27.9537C75.3854 29.0106 72.7194 32.3305 70.4025 36.2698C69.2712 38.1935 67.4818 41.2714 67.2695 46.3109C70.7581 41.1456 76.4477 33.9075 83.0374 32.1889C88.0383 30.8846 93.1029 31.2852 97.8002 31.6604C105.017 32.2322 114.454 37.2623 111.196 15.75C106.563 28.1915 92.8322 23.9203 86.1959 25.3239Z" fill="white"/>
<path d="M34.9048 71.3351H31.6583C34.5877 68.2885 36.3708 64.3279 36.7061 60.123C37.0414 55.9181 35.9083 51.7269 33.4985 48.2581C31.0887 44.7892 27.55 42.2556 23.4807 41.0855C19.4114 39.9155 15.0612 40.1809 11.1657 41.8368C7.27024 43.4927 4.06847 46.4376 2.10179 50.1734C0.13511 53.9093 -0.4758 58.2069 0.372343 62.3396C1.22049 66.4723 3.47563 70.1865 6.7565 72.8542C10.0374 75.5219 14.1426 76.9794 18.3781 76.9803H34.9006C35.2774 76.9876 35.6519 76.9199 36.0021 76.7813C36.3524 76.6427 36.6713 76.436 36.9404 76.1732C37.2095 75.9103 37.4232 75.5967 37.5691 75.2507C37.715 74.9046 37.7902 74.533 37.7902 74.1577C37.7902 73.7823 37.715 73.4108 37.5691 73.0647C37.4232 72.7186 37.2095 72.405 36.9404 72.1422C36.6713 71.8794 36.3524 71.6726 36.0021 71.534C35.6519 71.3954 35.2774 71.3278 34.9006 71.3351H34.9048ZM27.3695 67.6262C25.2898 69.6969 22.5535 70.9854 19.6268 71.2721C16.7001 71.5588 13.7642 70.8261 11.3192 69.1987C8.87416 67.5713 7.07139 65.1499 6.21802 62.3472C5.36465 59.5444 5.51347 56.5337 6.63915 53.828C7.76483 51.1223 9.79771 48.889 12.3914 47.5087C14.9851 46.1283 17.9792 45.6863 20.8634 46.258C23.7477 46.8296 26.3436 48.3795 28.2091 50.6437C30.0745 52.9078 31.0939 55.746 31.0937 58.6748C31.0959 60.3376 30.7681 61.9844 30.1291 63.5205C29.4902 65.0567 28.5527 66.452 27.3706 67.6262H27.3695Z" fill="white"/>
<path d="M139.23 53.9185H117.96C117.583 53.9112 117.209 53.9789 116.858 54.1175C116.508 54.2561 116.189 54.4628 115.92 54.7256C115.651 54.9884 115.437 55.3021 115.291 55.6481C115.145 55.9942 115.07 56.3658 115.07 56.7411C115.07 57.1164 115.145 57.488 115.291 57.8341C115.437 58.1801 115.651 58.4938 115.92 58.7566C116.189 59.0194 116.508 59.2262 116.858 59.3647C117.209 59.5033 117.583 59.571 117.96 59.5637H139.23C139.606 59.571 139.981 59.5033 140.331 59.3647C140.681 59.2262 141 59.0194 141.269 58.7566C141.538 58.4938 141.752 58.1801 141.898 57.8341C142.044 57.488 142.119 57.1164 142.119 56.7411C142.119 56.3658 142.044 55.9942 141.898 55.6481C141.752 55.3021 141.538 54.9884 141.269 54.7256C141 54.4628 140.681 54.2561 140.331 54.1175C139.981 53.9789 139.606 53.9112 139.23 53.9185Z" fill="white"/>
<path d="M128.387 71.2598H125.804C125.052 71.2598 124.331 71.5572 123.799 72.0867C123.267 72.6161 122.969 73.3342 122.969 74.0829C122.969 74.8316 123.267 75.5497 123.799 76.0792C124.331 76.6086 125.052 76.9061 125.804 76.9061H128.387C129.139 76.9061 129.86 76.6086 130.391 76.0792C130.923 75.5497 131.221 74.8316 131.221 74.0829C131.221 73.3342 130.923 72.6161 130.391 72.0867C129.86 71.5572 129.139 71.2598 128.387 71.2598Z" fill="white"/>
<path d="M117.755 71.2588H103.995C106.904 68.1988 108.663 64.2333 108.977 60.0314C109.29 55.8294 108.139 51.6484 105.716 48.1939C103.294 44.7393 99.7492 42.2228 95.6801 41.0689C91.611 39.9151 87.2667 40.1945 83.3805 41.8601C79.4942 43.5257 76.3039 46.4755 74.3479 50.2117C72.3919 53.9479 71.79 58.2417 72.6438 62.3685C73.4975 66.4954 75.7547 70.2025 79.0343 72.8644C82.3139 75.5264 86.4151 76.98 90.646 76.9801C99.6745 76.9801 108.72 76.9051 117.755 76.9051C118.507 76.9051 119.228 76.6076 119.759 76.0782C120.291 75.5488 120.59 74.8307 120.59 74.0819C120.59 73.3332 120.291 72.6151 119.759 72.0857C119.228 71.5562 118.507 71.2588 117.755 71.2588ZM99.6353 67.626C97.5557 69.6973 94.8193 70.9863 91.8923 71.2734C88.9654 71.5606 86.029 70.8282 83.5835 69.2009C81.1381 67.5736 79.3348 65.1523 78.481 62.3493C77.6273 59.5464 77.7758 56.5354 78.9013 53.8293C80.0268 51.1232 82.0597 48.8895 84.6536 47.5087C87.2474 46.128 90.2417 45.6857 93.1263 46.2572C96.0109 46.8287 98.6073 48.3786 100.473 50.6429C102.339 52.9071 103.358 55.7456 103.358 58.6746C103.36 60.3374 103.032 61.9841 102.394 63.5202C101.755 65.0564 100.817 66.4517 99.6353 67.626Z" fill="white"/>
<path d="M97.0018 37.1987C106.978 37.9893 115.432 38.6595 116.724 24.753C116.83 23.6718 116.873 20.8137 116.862 17.9335C116.856 15.4803 116.823 13.0715 116.729 11.5717C116.579 9.14068 114.432 7.50556 112.294 8.92928C107.64 12.0484 99.6582 12.5473 91.5106 13.0567C74.7016 14.1073 58.5771 15.4507 57.8671 35.942C57.6336 42.6896 59.1067 51.6421 62.9274 63.5181H46.8581C47.8997 56.645 46.4351 49.6276 42.7296 43.7371C39.3334 38.317 34.2306 34.0997 28.2831 31.9805L40.8065 10.9925L45.9581 15.252C46.5353 15.7156 47.2725 15.9345 48.0104 15.8612C48.7483 15.788 49.4276 15.4286 49.9015 14.8606C50.3755 14.2927 50.6061 13.5618 50.5434 12.8259C50.4807 12.0901 50.1298 11.4083 49.5666 10.928L42.0164 4.68664C41.2045 3.91506 40.1198 3.72798 39.0713 4.08206L33.4633 0.456688C31.6368 -0.72605 29.2361 0.525394 29.1045 2.64037L28.6641 9.44085C28.6365 9.90581 28.7248 10.3704 28.921 10.7931C29.1173 11.2159 29.4154 11.5838 29.789 11.8641C30.1625 12.1443 30.5999 12.3283 31.0621 12.3995C31.5242 12.4708 31.9969 12.4271 32.4381 12.2724L33.718 11.8401L21.5628 32.2088C19.6737 35.2053 22.8364 36.2475 24.959 36.8351C30.29 38.3085 34.9173 41.9223 37.9208 46.7167C40.9302 51.5033 42.109 57.2088 41.2416 62.7898C41.0824 63.8162 40.5274 65.464 40.5274 66.3433C40.5274 67.0921 40.826 67.8102 41.3577 68.3396C41.8893 68.869 42.6103 69.1665 43.3621 69.1665H66.8542C68.8909 69.1665 70.0074 67.3528 69.5595 65.4777C68.339 59.1296 69.2528 52.7181 72.0398 47.5601C77.686 37.1131 86.4672 36.3648 97.0018 37.1987ZM68.4876 42.5374C70.0159 35.7993 73.8058 30.3887 80.9113 28.7071C82.2313 28.3992 83.5786 28.2222 84.9336 28.1786C85.6825 28.1524 86.3902 27.831 86.9012 27.2851C87.4121 26.7392 87.6843 26.0136 87.658 25.2678C87.6317 24.522 87.309 23.8171 86.7608 23.3083C86.2127 22.7995 85.484 22.5283 84.7352 22.5545C83.0072 22.6081 81.2888 22.8311 79.6048 23.2204C71.2204 25.2044 65.9245 31.1941 63.5398 39.1668C63.4909 38.0993 63.4839 37.0867 63.5185 36.1291C64.0948 19.3995 78.4013 19.5348 91.864 18.6892C98.8378 18.2538 105.7 17.8247 111.196 15.7562C111.206 16.4686 111.213 17.2085 111.215 17.9399C111.224 20.6785 111.184 23.3304 111.099 24.252C110.323 32.602 104.419 32.1338 97.4443 31.581C85.6001 30.6361 75.7395 31.7924 68.4876 42.5374Z" fill="white"/>
<path d="M115.283 51.5273V36.1273H121.553C122.271 36.3913 122.909 36.8533 123.467 37.5133C124.024 38.1733 124.303 38.9727 124.303 39.9113C124.303 41.5687 123.76 42.7273 122.675 43.3873V43.4753C124.024 44.2233 124.699 45.3967 124.699 46.9953C124.699 48.8287 123.767 50.3393 121.905 51.5273H115.283ZM118.275 42.4853H120.453C121.098 42.0893 121.421 41.488 121.421 40.6813C121.421 39.8747 121.12 39.2367 120.519 38.7673H118.275V42.4853ZM118.275 48.9753H120.541C120.805 48.7847 121.039 48.484 121.245 48.0733C121.465 47.6627 121.575 47.252 121.575 46.8413C121.575 46.4307 121.487 46.0567 121.311 45.7193C121.135 45.382 120.915 45.1327 120.651 44.9713H118.275V48.9753ZM126.304 51.5273V36.1273H129.318V51.5273H126.304ZM131.439 51.5273V36.1273H134.453V42.6173H134.563L137.313 36.1273H140.415L137.203 43.4753L140.569 51.5273H137.225L134.607 44.7953H134.453V51.5273H131.439ZM141.622 51.5273V36.1273H149.52V38.7673H144.636V42.4413H148.992V44.9933H144.636V48.9753H149.608V51.5273H141.622ZM150.806 46.4453V43.9373H155.338V46.4453H150.806ZM156.941 51.5273V36.1273H163.211C163.929 36.3913 164.567 36.8533 165.125 37.5133C165.682 38.1733 165.961 38.9727 165.961 39.9113C165.961 41.5687 165.418 42.7273 164.333 43.3873V43.4753C165.682 44.2233 166.357 45.3967 166.357 46.9953C166.357 48.8287 165.425 50.3393 163.563 51.5273H156.941ZM159.933 42.4853H162.111C162.756 42.0893 163.079 41.488 163.079 40.6813C163.079 39.8747 162.778 39.2367 162.177 38.7673H159.933V42.4853ZM159.933 48.9753H162.199C162.463 48.7847 162.697 48.484 162.903 48.0733C163.123 47.6627 163.233 47.252 163.233 46.8413C163.233 46.4307 163.145 46.0567 162.969 45.7193C162.793 45.382 162.573 45.1327 162.309 44.9713H159.933V48.9753ZM167.962 51.5273V36.1273H170.976V51.5273H167.962ZM173.097 51.5273V36.1273H176.111V42.6173H176.221L178.971 36.1273H182.073L178.861 43.4753L182.227 51.5273H178.883L176.265 44.7953H176.111V51.5273H173.097ZM183.281 51.5273V36.1273H191.179V38.7673H186.295V42.4413H190.651V44.9933H186.295V48.9753H191.267V51.5273H183.281Z" fill="#36827F"/>
</svg>
