<svg width="127" height="53" viewBox="0 0 127 53" fill="none" xmlns="http://www.w3.org/2000/svg">
<path d="M74.2217 10.123C70.453 11.541 65.747 11.8358 60.9644 12.1341C54.7995 12.52 48.4925 12.9142 44.8827 15.7669C42.9463 17.297 41.6695 19.8724 41.5239 24.0928C41.5014 24.7496 42.2397 26.7831 42.2728 27.5155C42.7228 26.0107 43.7395 24.3385 44.4602 23.1131C46.5512 19.5566 48.5994 16.9511 52.6163 16.0015C53.7083 15.7431 54.424 15.8615 55.6763 15.8188C56.7457 15.781 57.0621 15.6087 57.1001 16.6752C57.1381 17.7416 56.7591 17.8425 55.6896 17.8803C54.7341 17.9139 53.7821 18.3109 52.9011 18.5196C49.9403 19.2198 48.174 21.4193 46.6391 24.029C45.8896 25.3035 44.7041 27.3425 44.5635 30.6813C46.8747 27.2592 50.6441 22.464 55.0097 21.3254C58.3228 20.4613 61.6781 20.7267 64.7894 20.9753C69.5706 21.3541 73.6227 21.6755 74.1542 15.949C74.2126 15.3188 74.24 13.4982 74.2337 11.6202C74.233 11.1181 74.2287 10.6111 74.2217 10.123Z" fill="#E7E7E7"/>
<path d="M41.5753 23.1714C41.5523 23.4697 41.5352 23.7766 41.524 24.0922C41.5008 24.749 42.2391 26.7825 42.2721 27.515C42.7221 26.0102 43.7388 24.338 44.4595 23.1126C44.9852 22.2001 45.5586 21.3156 46.1772 20.4629C44.5739 21.2435 43.0352 22.1491 41.5753 23.1714Z" fill="#94A04C"/>
<path d="M57.1051 16.7773C57.1142 17.7464 56.7268 17.8431 55.6925 17.8795C54.737 17.9138 53.785 18.3108 52.904 18.5195C49.9432 19.2197 48.1769 21.4192 46.642 24.0289C45.8925 25.3034 44.707 27.3425 44.5664 30.6812C46.8776 27.2591 50.647 22.4639 55.0126 21.3253C58.3257 20.4612 61.681 20.7266 64.793 20.9752C69.5742 21.354 75.8263 24.6865 73.6677 10.4346C70.5986 18.677 61.5017 15.8474 57.1051 16.7773Z" fill="#071108"/>
<path d="M23.1244 47.2594H20.9736C22.9143 45.241 24.0956 42.6172 24.3178 39.8314C24.5399 37.0457 23.7893 34.269 22.1928 31.9709C20.5963 29.6727 18.2519 27.9942 15.5559 27.2191C12.86 26.4439 9.97805 26.6197 7.39729 27.7168C4.81654 28.8138 2.69536 30.7648 1.39244 33.2398C0.0895106 35.7148 -0.315218 38.5619 0.246677 41.2999C0.808572 44.0378 2.30261 46.4985 4.47618 48.2658C6.64975 50.0332 9.36949 50.9988 12.1755 50.9993H23.1216C23.3713 51.0042 23.6194 50.9593 23.8514 50.8675C24.0834 50.7757 24.2948 50.6387 24.473 50.4646C24.6513 50.2905 24.7929 50.0827 24.8895 49.8535C24.9862 49.6242 25.036 49.378 25.036 49.1294C25.036 48.8807 24.9862 48.6345 24.8895 48.4053C24.7929 48.176 24.6513 47.9682 24.473 47.7941C24.2948 47.62 24.0834 47.483 23.8514 47.3912C23.6194 47.2994 23.3713 47.2546 23.1216 47.2594H23.1244ZM18.1323 44.8023C16.7545 46.1741 14.9417 47.0277 13.0028 47.2177C11.0638 47.4076 9.11877 46.9222 7.49895 45.844C5.87913 44.7659 4.68479 43.1617 4.11944 41.3049C3.55408 39.4481 3.65267 37.4535 4.39843 35.661C5.1442 33.8684 6.49098 32.3889 8.20931 31.4744C9.92764 30.5599 11.9112 30.2671 13.822 30.6458C15.7328 31.0245 17.4527 32.0514 18.6885 33.5513C19.9243 35.0513 20.5997 36.9317 20.5996 38.872C20.601 39.9735 20.3838 41.0645 19.9606 42.0823C19.5373 43.1 18.9162 44.0244 18.133 44.8023H18.1323Z" fill="#071108"/>
<path d="M92.2399 35.7211H78.1487C77.8991 35.7162 77.651 35.7611 77.419 35.8529C77.1869 35.9447 76.9756 36.0816 76.7973 36.2558C76.6191 36.4299 76.4775 36.6377 76.3808 36.8669C76.2842 37.0962 76.2344 37.3424 76.2344 37.591C76.2344 37.8397 76.2842 38.0859 76.3808 38.3151C76.4775 38.5444 76.6191 38.7522 76.7973 38.9263C76.9756 39.1004 77.1869 39.2374 77.419 39.3292C77.651 39.421 77.8991 39.4658 78.1487 39.461H92.2399C92.4895 39.4658 92.7376 39.421 92.9697 39.3292C93.2017 39.2374 93.413 39.1004 93.5913 38.9263C93.7695 38.7522 93.9112 38.5444 94.0078 38.3151C94.1045 38.0859 94.1543 37.8397 94.1543 37.591C94.1543 37.3424 94.1045 37.0962 94.0078 36.8669C93.9112 36.6377 93.7695 36.4299 93.5913 36.2558C93.413 36.0816 93.2017 35.9447 92.9697 35.8529C92.7376 35.7611 92.4895 35.7162 92.2399 35.7211Z" fill="#071108"/>
<path d="M85.0543 47.209H83.3429C82.8448 47.209 82.3671 47.406 82.0149 47.7568C81.6627 48.1076 81.4648 48.5833 81.4648 49.0793C81.4648 49.5754 81.6627 50.0511 82.0149 50.4018C82.3671 50.7526 82.8448 50.9497 83.3429 50.9497H85.0543C85.5523 50.9497 86.03 50.7526 86.3822 50.4018C86.7344 50.0511 86.9323 49.5754 86.9323 49.0793C86.9323 48.5833 86.7344 48.1076 86.3822 47.7568C86.03 47.406 85.5523 47.209 85.0543 47.209Z" fill="#071108"/>
<path d="M78.0117 47.2095H68.8958C70.8227 45.1823 71.9884 42.5551 72.1961 39.7713C72.4039 36.9876 71.6409 34.2176 70.0361 31.929C68.4313 29.6404 66.0829 27.9732 63.3871 27.2087C60.6913 26.4443 57.8132 26.6294 55.2386 27.7329C52.664 28.8364 50.5504 30.7906 49.2545 33.2658C47.9587 35.741 47.5599 38.5857 48.1255 41.3197C48.6911 44.0537 50.1865 46.5097 52.3592 48.2733C54.532 50.0368 57.2491 50.9998 60.052 50.9999C66.0334 50.9999 72.0261 50.9502 78.0117 50.9502C78.5098 50.9502 78.9875 50.7531 79.3397 50.4024C79.6919 50.0516 79.8898 49.5759 79.8898 49.0798C79.8898 48.5838 79.6919 48.1081 79.3397 47.7573C78.9875 47.4066 78.5098 47.2095 78.0117 47.2095ZM66.0074 44.8028C64.6297 46.175 62.8168 47.029 60.8777 47.2192C58.9386 47.4095 56.9932 46.9242 55.3731 45.8462C53.753 44.7681 52.5583 43.1639 51.9927 41.307C51.4271 39.45 51.5255 37.4552 52.2711 35.6624C53.0168 33.8697 54.3636 32.3898 56.082 31.4751C57.8004 30.5604 59.7842 30.2674 61.6952 30.646C63.6062 31.0246 65.3263 32.0514 66.5624 33.5515C67.7985 35.0515 68.474 36.932 68.4739 38.8725C68.4752 39.9741 68.258 41.065 67.8347 42.0827C67.4114 43.1004 66.7905 44.0248 66.0074 44.8028Z" fill="#071108"/>
<path d="M64.2639 24.6442C70.8732 25.1679 76.4742 25.6119 77.3299 16.3989C77.4002 15.6825 77.4283 13.7891 77.4213 11.881C77.4171 10.2557 77.3953 8.65987 77.3334 7.66624C77.2336 6.0557 75.8112 4.97243 74.3951 5.91565C71.3119 7.98205 66.0238 8.31256 60.6259 8.65007C49.49 9.34611 38.8075 10.2361 38.3371 23.8116C38.1824 28.2819 39.1584 34.2129 41.6896 42.0807H31.0437C31.7338 37.5273 30.7635 32.8783 28.3085 28.9758C26.0586 25.385 22.678 22.5911 18.7377 21.1871L27.0345 7.28251L30.4474 10.1045C30.8298 10.4116 31.3182 10.5566 31.8071 10.5081C32.2959 10.4595 32.746 10.2214 33.06 9.84515C33.374 9.46888 33.5267 8.98468 33.4852 8.49717C33.4437 8.00967 33.2112 7.55801 32.838 7.23979L27.8361 3.1049C27.2982 2.59373 26.5796 2.46979 25.8849 2.70436L22.1696 0.302556C20.9596 -0.481008 19.3691 0.348073 19.2819 1.74925L18.9901 6.25456C18.9719 6.5626 19.0303 6.87036 19.1604 7.15045C19.2904 7.43054 19.4879 7.67427 19.7354 7.85994C19.9829 8.04562 20.2726 8.16748 20.5788 8.21468C20.885 8.26189 21.1982 8.23297 21.4904 8.13049L22.3384 7.8441L14.2856 21.3383C13.034 23.3235 15.1293 24.014 16.5356 24.4033C20.0673 25.3794 23.1329 27.7735 25.1227 30.9498C27.1165 34.1209 27.8974 37.9008 27.3228 41.5983C27.2173 42.2782 26.8496 43.3699 26.8496 43.9525C26.8496 44.4485 27.0474 44.9242 27.3996 45.275C27.7518 45.6257 28.2295 45.8228 28.7276 45.8228H44.2911C45.6404 45.8228 46.3801 44.6212 46.0834 43.379C45.2748 39.1734 45.8802 34.9257 47.7266 31.5086C51.4671 24.5874 57.2847 24.0917 64.2639 24.6442ZM45.3732 28.1811C46.3857 23.717 48.8965 20.1325 53.6039 19.0185C54.4784 18.8145 55.371 18.6972 56.2687 18.6683C56.7649 18.651 57.2337 18.4381 57.5722 18.0764C57.9107 17.7147 58.0911 17.234 58.0736 16.7399C58.0562 16.2458 57.8424 15.7788 57.4792 15.4417C57.1161 15.1047 56.6334 14.925 56.1372 14.9424C54.9925 14.9779 53.854 15.1256 52.7384 15.3835C47.1837 16.6979 43.6752 20.6661 42.0953 25.948C42.0629 25.2408 42.0583 24.5699 42.0812 23.9355C42.463 12.8522 51.941 12.9418 60.8601 12.3816C65.4803 12.0931 70.0266 11.8088 73.6674 10.4385C73.6744 10.9104 73.6786 11.4006 73.68 11.8852C73.6863 13.6995 73.6596 15.4564 73.6034 16.067C73.0894 21.5988 69.178 21.2886 64.5571 20.9224C56.7103 20.2964 50.1776 21.0625 45.3732 28.1811Z" fill="#071108"/>
<path d="M77.672 33V23.2H81.662C82.1193 23.368 82.5253 23.662 82.88 24.082C83.2347 24.502 83.412 25.0107 83.412 25.608C83.412 26.6627 83.0667 27.4 82.376 27.82V27.876C83.2347 28.352 83.664 29.0987 83.664 30.116C83.664 31.2827 83.0713 32.244 81.886 33H77.672ZM79.576 27.246H80.962C81.3727 26.994 81.578 26.6113 81.578 26.098C81.578 25.5847 81.3867 25.1787 81.004 24.88H79.576V27.246ZM79.576 31.376H81.018C81.186 31.2547 81.3353 31.0633 81.466 30.802C81.606 30.5407 81.676 30.2793 81.676 30.018C81.676 29.7567 81.62 29.5187 81.508 29.304C81.396 29.0893 81.256 28.9307 81.088 28.828H79.576V31.376ZM84.6857 33V23.2H86.6037V33H84.6857ZM87.9533 33V23.2H89.8713V27.33H89.9413L91.6913 23.2H93.6653L91.6213 27.876L93.7633 33H91.6353L89.9693 28.716H89.8713V33H87.9533ZM94.4337 33V23.2H99.4597V24.88H96.3517V27.218H99.1237V28.842H96.3517V31.376H99.5157V33H94.4337ZM100.278 29.766V28.17H103.162V29.766H100.278ZM104.182 33V23.2H108.172C108.629 23.368 109.035 23.662 109.39 24.082C109.744 24.502 109.922 25.0107 109.922 25.608C109.922 26.6627 109.576 27.4 108.886 27.82V27.876C109.744 28.352 110.174 29.0987 110.174 30.116C110.174 31.2827 109.581 32.244 108.396 33H104.182ZM106.086 27.246H107.472C107.882 26.994 108.088 26.6113 108.088 26.098C108.088 25.5847 107.896 25.1787 107.514 24.88H106.086V27.246ZM106.086 31.376H107.528C107.696 31.2547 107.845 31.0633 107.976 30.802C108.116 30.5407 108.186 30.2793 108.186 30.018C108.186 29.7567 108.13 29.5187 108.018 29.304C107.906 29.0893 107.766 28.9307 107.598 28.828H106.086V31.376ZM111.195 33V23.2H113.113V33H111.195ZM114.463 33V23.2H116.381V27.33H116.451L118.201 23.2H120.175L118.131 27.876L120.273 33H118.145L116.479 28.716H116.381V33H114.463ZM120.943 33V23.2H125.969V24.88H122.861V27.218H125.633V28.842H122.861V31.376H126.025V33H120.943Z" fill="#36827F"/>
</svg>
